<svg width="1294" height="1176" fill="none" xmlns="http://www.w3.org/2000/svg"><g filter="url(#filter0_i)"><path d="M1014.31 973.258l-216.369-75.746c38.322-16.504 109.924-82.653 131.086-127.968l85.283 203.714z" fill="#FB5012"/></g><g filter="url(#filter1_ii)"><path fill-rule="evenodd" clip-rule="evenodd" d="M317.35 752.816c-30.363-51.148-47.796-110.871-47.796-174.666 0-189.247 153.415-342.663 342.663-342.663 189.248 0 342.663 153.416 342.663 342.663 0 189.248-153.415 342.664-342.663 342.664-61.864 0-119.9-16.395-169.998-45.075l36.188-12.063c36.72 17.238 77.308 27.601 120.106 29.432v.293l13.704-.001 13.709.001v-.293c167.747-7.177 301.541-145.443 301.541-314.958 0-169.514-133.794-307.78-301.541-314.957v-.293H598.513v.292c-167.751 7.175-301.547 145.442-301.547 314.958 0 49.913 11.6 97.117 32.251 139.063l-11.867 35.603zm7.35-160.959c2.69 57.383 22.183 110.371 53.669 154.157 24.302-8.129 52.358-14.618 82.637-19.503-11.741-40.43-18.833-86.121-19.962-134.654H324.7zm144.897 161.048c-26.611 4.128-51.279 9.484-72.903 16.039 34.942 39.442 80.546 69.223 132.295 84.828-23.892-24.479-44.271-59.17-59.392-100.867zm-1.132-161.048c1.164 47.741 8.368 92.138 19.969 130.738 35.195-4.407 72.603-6.821 110.079-7.293V591.857H468.465zM736 722.594c-35.193-4.406-72.6-6.819-110.074-7.292V591.857h130.043c-1.164 47.741-8.368 92.138-19.969 130.737zm-267.535-158.15h130.048V454.705c-38.807-.489-77.542-3.06-113.821-7.77-9.402 35.391-15.194 75.132-16.227 117.509zm157.461 0V454.705c38.805-.489 77.539-3.06 113.817-7.77 9.401 35.391 15.193 75.133 16.226 117.509H625.926zM492.711 420.32c33.521 4.16 69.443 6.5 105.802 6.97V291.751c-28.569 5.964-58.387 30.623-83.36 76.574-8.434 15.519-15.989 32.961-22.442 51.995zm133.215 6.97V291.752c28.568 5.966 58.383 30.625 83.355 76.573 8.435 15.519 15.989 32.961 22.443 51.995-33.52 4.16-69.441 6.5-105.798 6.97zM515.153 787.976c24.973 45.95 54.791 70.609 83.36 76.574V742.717c-34.657.448-68.917 2.595-101.079 6.398 5.325 13.981 11.264 26.984 17.719 38.861zm110.773-45.259v121.831c28.568-5.966 58.383-30.624 83.355-76.572 6.455-11.877 12.395-24.88 17.72-38.861-32.161-3.803-66.42-5.95-101.075-6.398zm157.464-150.86c-1.129 48.533-8.221 94.223-19.962 134.654 30.278 4.885 58.335 11.373 82.636 19.502 31.486-43.785 50.979-96.774 53.669-154.156H783.39zm-28.553 161.048c26.611 4.128 51.278 9.483 72.903 16.038-34.943 39.442-80.545 69.223-132.294 84.828 23.892-24.478 44.27-59.169 59.391-100.866zM324.7 564.444h116.344c1.008-43.355 6.775-84.443 16.365-121.538-32.086-5.343-61.578-12.51-86.619-21.546-27.023 41.526-43.623 90.457-46.09 143.084zm62.878-166.276c22.537 7.501 48.858 13.588 77.55 18.226 15.462-47.499 37.527-86.885 63.861-113.865-56.378 17-105.46 50.826-141.411 95.639zm379.448 44.738c9.589 37.096 15.356 78.183 16.364 121.538h116.343c-2.467-52.627-19.067-101.558-46.09-143.083-25.041 9.036-54.532 16.202-86.617 21.545zm-7.72-26.512c28.691-4.638 55.013-10.725 77.55-18.226-35.951-44.812-85.033-78.638-141.41-95.639 26.333 26.98 48.398 66.367 63.86 113.865z" fill="#005EF4"/></g><path fill-rule="evenodd" clip-rule="evenodd" d="M477.664 863.924c40.82 19.254 86.431 30.019 134.556 30.019 174.408 0 315.793-141.385 315.793-315.793 0-174.408-141.385-315.793-315.793-315.793-174.408 0-315.793 141.385-315.793 315.793 0 50.195 11.711 97.654 32.549 139.795l-11.624 34.87c-30.362-51.147-47.795-110.87-47.795-174.665 0-189.248 153.415-342.663 342.663-342.663 189.248 0 342.663 153.415 342.663 342.663 0 189.248-153.415 342.663-342.663 342.663-61.864 0-119.9-16.394-169.998-45.075l35.442-11.814z" fill="#005EF4"/><path fill-rule="evenodd" clip-rule="evenodd" d="M329.434 717.647l-16.243-5.737-79.715 225.71-12.477 35.327 35.33-12.469 228.397-80.611-5.596-15.855a313.794 313.794 0 01-23.153-11.992l-176.243 62.204 61.668-174.609a314.677 314.677 0 01-11.968-21.968z" fill="#005EF4"/><g filter="url(#filter2_i)"><path d="M745.413 229.727c-8.584-3.623-12.467-13.902-7.151-21.554a141.051 141.051 0 0131.001-32.2 141.497 141.497 0 0156.492-25.527 141.611 141.611 0 0161.998 1.06 141.219 141.219 0 0155.543 27.441 140.644 140.644 0 0138.372 48.528 140.284 140.284 0 0113.798 60.252 140.406 140.406 0 01-13.44 60.352 140.836 140.836 0 01-25.737 37.386c-6.274 6.54-16.771 5.09-22.135-2.216-16.996-23.152-53.157-70.102-84.582-95.522-31.72-25.658-79.394-47.545-104.159-58z" fill="#FFE342"/></g><g filter="url(#filter3_i)"><path d="M485.962 229.536c8.766-3.498 12.821-13.91 7.416-21.648a141.048 141.048 0 00-30.802-31.915 141.497 141.497 0 00-56.492-25.527 141.61 141.61 0 00-61.998 1.06 141.23 141.23 0 00-55.544 27.441 140.653 140.653 0 00-38.371 48.528 140.284 140.284 0 00-13.798 60.252 140.406 140.406 0 0013.44 60.352 140.848 140.848 0 0025.21 36.835c6.427 6.772 17.3 5.029 22.54-2.698 15.93-23.491 49.025-69.441 79.989-94.489 31.915-25.816 82.406-47.814 108.41-58.191z" fill="#FFE342"/></g><defs><filter id="filter0_i" x="770.528" y="762.691" width="243.781" height="210.567" filterUnits="userSpaceOnUse" color-interpolation-filters="sRGB"><feFlood flood-opacity="0" result="BackgroundImageFix"/><feBlend in="SourceGraphic" in2="BackgroundImageFix" result="shape"/><feColorMatrix in="SourceAlpha" values="0 0 0 0 0 0 0 0 0 0 0 0 0 0 0 0 0 0 127 0" result="hardAlpha"/><feOffset dx="-27.413" dy="-6.853"/><feGaussianBlur stdDeviation="13.707"/><feComposite in2="hardAlpha" operator="arithmetic" k2="-1" k3="1"/><feColorMatrix values="0 0 0 0 0 0 0 0 0 0 0 0 0 0 0 0 0 0 0.25 0"/><feBlend in2="shape" result="effect1_innerShadow"/></filter><filter id="filter1_ii" x="242.141" y="221.78" width="726.446" height="712.74" filterUnits="userSpaceOnUse" color-interpolation-filters="sRGB"><feFlood flood-opacity="0" result="BackgroundImageFix"/><feBlend in="SourceGraphic" in2="BackgroundImageFix" result="shape"/><feColorMatrix in="SourceAlpha" values="0 0 0 0 0 0 0 0 0 0 0 0 0 0 0 0 0 0 127 0" result="hardAlpha"/><feOffset dx="-27.413" dy="13.707"/><feGaussianBlur stdDeviation="13.707"/><feComposite in2="hardAlpha" operator="arithmetic" k2="-1" k3="1"/><feColorMatrix values="0 0 0 0 0 0 0 0 0 0 0 0 0 0 0 0 0 0 0.25 0"/><feBlend in2="shape" result="effect1_innerShadow"/><feColorMatrix in="SourceAlpha" values="0 0 0 0 0 0 0 0 0 0 0 0 0 0 0 0 0 0 127 0" result="hardAlpha"/><feOffset dx="13.707" dy="-13.707"/><feGaussianBlur stdDeviation="13.707"/><feComposite in2="hardAlpha" operator="arithmetic" k2="-1" k3="1"/><feColorMatrix values="0 0 0 0 1 0 0 0 0 1 0 0 0 0 1 0 0 0 0.25 0"/><feBlend in2="effect1_innerShadow" result="effect2_innerShadow"/></filter><filter id="filter2_i" x="701.709" y="133" width="305.737" height="285.059" filterUnits="userSpaceOnUse" color-interpolation-filters="sRGB"><feFlood flood-opacity="0" result="BackgroundImageFix"/><feBlend in="SourceGraphic" in2="BackgroundImageFix" result="shape"/><feColorMatrix in="SourceAlpha" values="0 0 0 0 0 0 0 0 0 0 0 0 0 0 0 0 0 0 127 0" result="hardAlpha"/><feOffset dx="-20.678"/><feGaussianBlur stdDeviation="15.508"/><feComposite in2="hardAlpha" operator="arithmetic" k2="-1" k3="1"/><feColorMatrix values="0 0 0 0 0 0 0 0 0 0 0 0 0 0 0 0 0 0 0.25 0"/><feBlend in2="shape" result="effect1_innerShadow"/></filter><filter id="filter3_i" x="203.715" y="133" width="305.737" height="285.059" filterUnits="userSpaceOnUse" color-interpolation-filters="sRGB"><feFlood flood-opacity="0" result="BackgroundImageFix"/><feBlend in="SourceGraphic" in2="BackgroundImageFix" result="shape"/><feColorMatrix in="SourceAlpha" values="0 0 0 0 0 0 0 0 0 0 0 0 0 0 0 0 0 0 127 0" result="hardAlpha"/><feOffset dx="-20.678"/><feGaussianBlur stdDeviation="15.508"/><feComposite in2="hardAlpha" operator="arithmetic" k2="-1" k3="1"/><feColorMatrix values="0 0 0 0 0 0 0 0 0 0 0 0 0 0 0 0 0 0 0.25 0"/><feBlend in2="shape" result="effect1_innerShadow"/></filter></defs></svg>