<svg width="1294" height="1176" viewBox="0 0 1294 1176" fill="none" xmlns="http://www.w3.org/2000/svg">
<g filter="url(#filter0_i)">
<path d="M1014.31 973.258L797.941 897.512C836.263 881.008 907.865 814.859 929.027 769.544L1014.31 973.258Z" fill="#FB5012"/>
</g>
<g filter="url(#filter1_ii)">
<path fill-rule="evenodd" clip-rule="evenodd" d="M317.35 752.816C286.987 701.668 269.554 641.945 269.554 578.15C269.554 388.903 422.969 235.487 612.217 235.487C801.465 235.487 954.88 388.903 954.88 578.15C954.88 767.398 801.465 920.814 612.217 920.814C550.353 920.814 492.317 904.419 442.219 875.739L478.407 863.676C515.127 880.914 555.715 891.277 598.513 893.108V893.401L612.217 893.4L625.926 893.401V893.108C793.673 885.931 927.467 747.665 927.467 578.15C927.467 408.636 793.673 270.37 625.926 263.193V262.9H612.412L612.216 262.9L612.021 262.9H598.513V263.192C430.762 270.367 296.966 408.634 296.966 578.15C296.966 628.063 308.566 675.267 329.217 717.213L317.35 752.816ZM324.7 591.857C327.39 649.24 346.883 702.228 378.369 746.014C402.671 737.885 430.727 731.396 461.006 726.511C449.265 686.081 442.173 640.39 441.044 591.857H324.7ZM469.597 752.905C442.986 757.033 418.318 762.389 396.694 768.944C431.636 808.386 477.24 838.167 528.989 853.772C505.097 829.293 484.718 794.602 469.597 752.905ZM468.465 591.857C469.629 639.598 476.833 683.995 488.434 722.595C523.629 718.188 561.037 715.774 598.513 715.302V591.857H468.465ZM736 722.594C700.807 718.188 663.4 715.775 625.926 715.302V591.857H755.969C754.805 639.598 747.601 683.995 736 722.594ZM468.465 564.444H598.513V454.705C559.706 454.216 520.971 451.645 484.692 446.935C475.29 482.326 469.498 522.067 468.465 564.444ZM625.926 564.444V454.705C664.731 454.216 703.465 451.645 739.743 446.935C749.144 482.326 754.936 522.068 755.969 564.444H625.926ZM492.711 420.32C526.232 424.48 562.154 426.82 598.513 427.29V291.751C569.944 297.715 540.126 322.374 515.153 368.325C506.719 383.844 499.164 401.286 492.711 420.32ZM625.926 427.29V291.752C654.494 297.718 684.309 322.377 709.281 368.325C717.716 383.844 725.27 401.286 731.724 420.32C698.204 424.48 662.283 426.82 625.926 427.29ZM515.153 787.976C540.126 833.926 569.944 858.585 598.513 864.55V742.717C563.856 743.165 529.596 745.312 497.434 749.115C502.759 763.096 508.698 776.099 515.153 787.976ZM625.926 742.717V864.548C654.494 858.582 684.309 833.924 709.281 787.976C715.736 776.099 721.676 763.096 727.001 749.115C694.84 745.312 660.581 743.165 625.926 742.717ZM783.39 591.857C782.261 640.39 775.169 686.08 763.428 726.511C793.706 731.396 821.763 737.884 846.064 746.013C877.55 702.228 897.043 649.239 899.733 591.857H783.39ZM754.837 752.905C781.448 757.033 806.115 762.388 827.74 768.943C792.797 808.385 747.195 838.166 695.446 853.771C719.338 829.293 739.716 794.602 754.837 752.905ZM324.7 564.444H441.044C442.052 521.089 447.819 480.001 457.409 442.906C425.323 437.563 395.831 430.396 370.79 421.36C343.767 462.886 327.167 511.817 324.7 564.444ZM387.578 398.168C410.115 405.669 436.436 411.756 465.128 416.394C480.59 368.895 502.655 329.509 528.989 302.529C472.611 319.529 423.529 353.355 387.578 398.168ZM767.026 442.906C776.615 480.002 782.382 521.089 783.39 564.444H899.733C897.266 511.817 880.666 462.886 853.643 421.361C828.602 430.397 799.111 437.563 767.026 442.906ZM759.306 416.394C787.997 411.756 814.319 405.669 836.856 398.168C800.905 353.356 751.823 319.53 695.446 302.529C721.779 329.509 743.844 368.896 759.306 416.394Z" fill="#005EF4"/>
</g>
<path fill-rule="evenodd" clip-rule="evenodd" d="M477.664 863.924C518.484 883.178 564.095 893.943 612.22 893.943C786.628 893.943 928.013 752.558 928.013 578.15C928.013 403.742 786.628 262.357 612.22 262.357C437.812 262.357 296.427 403.742 296.427 578.15C296.427 628.345 308.138 675.804 328.976 717.945L317.352 752.815C286.99 701.668 269.557 641.945 269.557 578.15C269.557 388.902 422.972 235.487 612.22 235.487C801.468 235.487 954.883 388.902 954.883 578.15C954.883 767.398 801.468 920.813 612.22 920.813C550.356 920.813 492.32 904.419 442.222 875.738L477.664 863.924Z" fill="#005EF4"/>
<path fill-rule="evenodd" clip-rule="evenodd" d="M329.434 717.647L313.191 711.91L233.476 937.62L220.999 972.947L256.329 960.478L484.726 879.867L479.13 864.012C471.229 860.328 463.506 856.325 455.977 852.02L279.734 914.224L341.402 739.615C337.133 732.47 333.139 725.143 329.434 717.647Z" fill="#005EF4"/>
<g filter="url(#filter2_i)">
<path d="M745.413 229.727C736.829 226.104 732.946 215.825 738.262 208.173C746.792 195.896 757.249 185.018 769.263 175.973C785.966 163.397 805.262 154.678 825.755 150.446C846.247 146.215 867.424 146.577 887.753 151.506C908.082 156.435 927.054 165.808 943.296 178.947C959.539 192.086 972.646 208.662 981.668 227.475C990.691 246.288 995.404 266.869 995.466 287.727C995.528 308.586 990.937 329.2 982.026 348.079C975.514 361.877 966.812 374.496 956.289 385.465C950.015 392.005 939.518 390.555 934.154 383.249C917.158 360.097 880.997 313.147 849.572 287.727C817.852 262.069 770.178 240.182 745.413 229.727Z" fill="#FFE342"/>
</g>
<g filter="url(#filter3_i)">
<path d="M485.962 229.536C494.728 226.038 498.783 215.626 493.378 207.888C484.885 195.728 474.497 184.948 462.576 175.973C445.873 163.397 426.577 154.678 406.084 150.446C385.591 146.215 364.414 146.577 344.086 151.506C323.757 156.435 304.785 165.808 288.542 178.947C272.3 192.086 259.193 208.662 250.171 227.475C241.148 246.288 236.435 266.869 236.373 287.727C236.311 308.586 240.902 329.2 249.813 348.079C256.216 361.647 264.737 374.074 275.023 384.914C281.45 391.686 292.323 389.943 297.563 382.216C313.493 358.725 346.588 312.775 377.552 287.727C409.467 261.911 459.958 239.913 485.962 229.536Z" fill="#FFE342"/>
</g>
<defs>
<filter id="filter0_i" x="770.528" y="762.691" width="243.781" height="210.567" filterUnits="userSpaceOnUse" color-interpolation-filters="sRGB">
<feFlood flood-opacity="0" result="BackgroundImageFix"/>
<feBlend mode="normal" in="SourceGraphic" in2="BackgroundImageFix" result="shape"/>
<feColorMatrix in="SourceAlpha" type="matrix" values="0 0 0 0 0 0 0 0 0 0 0 0 0 0 0 0 0 0 127 0" result="hardAlpha"/>
<feOffset dx="-27.4131" dy="-6.85327"/>
<feGaussianBlur stdDeviation="13.7065"/>
<feComposite in2="hardAlpha" operator="arithmetic" k2="-1" k3="1"/>
<feColorMatrix type="matrix" values="0 0 0 0 0 0 0 0 0 0 0 0 0 0 0 0 0 0 0.25 0"/>
<feBlend mode="normal" in2="shape" result="effect1_innerShadow"/>
</filter>
<filter id="filter1_ii" x="242.141" y="221.78" width="726.446" height="712.74" filterUnits="userSpaceOnUse" color-interpolation-filters="sRGB">
<feFlood flood-opacity="0" result="BackgroundImageFix"/>
<feBlend mode="normal" in="SourceGraphic" in2="BackgroundImageFix" result="shape"/>
<feColorMatrix in="SourceAlpha" type="matrix" values="0 0 0 0 0 0 0 0 0 0 0 0 0 0 0 0 0 0 127 0" result="hardAlpha"/>
<feOffset dx="-27.4131" dy="13.7065"/>
<feGaussianBlur stdDeviation="13.7065"/>
<feComposite in2="hardAlpha" operator="arithmetic" k2="-1" k3="1"/>
<feColorMatrix type="matrix" values="0 0 0 0 0 0 0 0 0 0 0 0 0 0 0 0 0 0 0.25 0"/>
<feBlend mode="normal" in2="shape" result="effect1_innerShadow"/>
<feColorMatrix in="SourceAlpha" type="matrix" values="0 0 0 0 0 0 0 0 0 0 0 0 0 0 0 0 0 0 127 0" result="hardAlpha"/>
<feOffset dx="13.7065" dy="-13.7065"/>
<feGaussianBlur stdDeviation="13.7065"/>
<feComposite in2="hardAlpha" operator="arithmetic" k2="-1" k3="1"/>
<feColorMatrix type="matrix" values="0 0 0 0 1 0 0 0 0 1 0 0 0 0 1 0 0 0 0.25 0"/>
<feBlend mode="normal" in2="effect1_innerShadow" result="effect2_innerShadow"/>
</filter>
<filter id="filter2_i" x="701.709" y="133" width="305.737" height="285.059" filterUnits="userSpaceOnUse" color-interpolation-filters="sRGB">
<feFlood flood-opacity="0" result="BackgroundImageFix"/>
<feBlend mode="normal" in="SourceGraphic" in2="BackgroundImageFix" result="shape"/>
<feColorMatrix in="SourceAlpha" type="matrix" values="0 0 0 0 0 0 0 0 0 0 0 0 0 0 0 0 0 0 127 0" result="hardAlpha"/>
<feOffset dx="-20.6776"/>
<feGaussianBlur stdDeviation="15.5082"/>
<feComposite in2="hardAlpha" operator="arithmetic" k2="-1" k3="1"/>
<feColorMatrix type="matrix" values="0 0 0 0 0 0 0 0 0 0 0 0 0 0 0 0 0 0 0.25 0"/>
<feBlend mode="normal" in2="shape" result="effect1_innerShadow"/>
</filter>
<filter id="filter3_i" x="203.715" y="133" width="305.737" height="285.059" filterUnits="userSpaceOnUse" color-interpolation-filters="sRGB">
<feFlood flood-opacity="0" result="BackgroundImageFix"/>
<feBlend mode="normal" in="SourceGraphic" in2="BackgroundImageFix" result="shape"/>
<feColorMatrix in="SourceAlpha" type="matrix" values="0 0 0 0 0 0 0 0 0 0 0 0 0 0 0 0 0 0 127 0" result="hardAlpha"/>
<feOffset dx="-20.6776"/>
<feGaussianBlur stdDeviation="15.5082"/>
<feComposite in2="hardAlpha" operator="arithmetic" k2="-1" k3="1"/>
<feColorMatrix type="matrix" values="0 0 0 0 0 0 0 0 0 0 0 0 0 0 0 0 0 0 0.25 0"/>
<feBlend mode="normal" in2="shape" result="effect1_innerShadow"/>
</filter>
</defs>
</svg>
